<?xml version="1.0" encoding="UTF-8" standalone="no"?>
<!-- Creator: fig2dev Version 3.2.7b WinFIG version 1 (2020-01-08) -->
<!-- CreationDate: 2023-03-11 11:55:37 -->
<!-- Magnification: 1 -->
<svg	xmlns="http://www.w3.org/2000/svg"
	xmlns:xlink="http://www.w3.org/1999/xlink"
	width="477pt" height="89pt"
	viewBox="251 429 7949 1476">
<desc>Created by WinFIG version 2021.1</desc>
<desc>METADATA &lt;version&gt;1.0&lt;/version&gt;</desc>
<g fill="none">
<!-- Arc -->
<!-- METADATA &lt;id&gt;7&lt;/id&gt; -->
<defs>
<clipPath id="cp0">
	<path clip-rule="evenodd" d="M 251,429 H 8200 V 1905 H 251 z
		M 4774,782 4804,811 4775,842 4951,816 4951,802z"/>
</clipPath>
</defs>
<path d="M 3299,1047 A 5808 5808 0 0 1 4944 809" clip-path="url(#cp0)"
	stroke="#000000" stroke-width="8px"/>
<!-- Forward arrow to point 4944,809 -->
<polygon points=" 4775,842 4924,809 4774,782 4804,811 4775,842"
	stroke="#000000" stroke-width="8px" stroke-miterlimit="8" fill="#000000"/>
<!-- Line -->
<!-- METADATA &lt;id&gt;5&lt;/id&gt; -->
<polygon points=" 263,1893 2621,1886 3082,484 731,477"
	stroke="#000000" stroke-width="8px"/>
<!-- Line -->
<!-- METADATA &lt;id&gt;10&lt;/id&gt; -->
<polygon points=" 5897,1780 5925,1788 5954,1795 5983,1802 6013,1809 6044,1814 6076,1820 6108,1824
 6142,1829 6176,1832 6211,1835 6247,1838 6283,1840 6320,1841 6356,1842 6394,1842
 6431,1842 6468,1841 6505,1839 6541,1837 6577,1835 6612,1832 6647,1828 6681,1824
 6714,1820 6746,1815 6778,1810 6808,1804 6838,1798 6867,1792 6896,1785 6924,1778
 6952,1770 6980,1762 7007,1754 7035,1745 7062,1735 7090,1725 7118,1714 7146,1703
 7174,1691 7202,1678 7230,1666 7259,1652 7287,1638 7315,1624 7343,1609 7371,1594
 7398,1579 7425,1564 7452,1548 7479,1532 7505,1516 7531,1500 7556,1484 7581,1468
 7606,1452 7631,1436 7655,1420 7680,1404 7704,1388 7731,1370 7757,1351 7785,1333
 7812,1314 7839,1294 7867,1274 7895,1254 7922,1233 7949,1211 7976,1190 8002,1167
 8027,1145 8051,1123 8073,1100 8094,1078 8113,1056 8130,1034 8146,1012 8159,991
 8169,970 8178,950 8184,930 8187,911 8188,893 8186,875 8182,858 8175,841 8165,825
 8154,811 8141,797 8126,783 8109,770 8089,757 8067,744 8043,731 8016,718 7988,705
 7957,692 7925,680 7891,667 7855,655 7817,643 7778,632 7738,620 7697,609 7654,599
 7612,588 7569,578 7525,569 7482,560 7438,551 7395,543 7352,535 7310,528 7268,521
 7227,514 7187,508 7147,502 7108,496 7069,491 7031,486 6993,481 6955,476 6917,472
 6879,468 6842,464 6804,460 6766,457 6728,454 6690,451 6652,449 6614,447 6576,445
 6539,443 6502,442 6465,442 6429,441 6394,442 6359,442 6325,443 6292,444 6260,446
 6229,448 6198,450 6169,453 6141,456 6113,460 6087,464 6061,468 6036,472 6012,477
 5989,483 5958,490 5927,499 5898,508 5868,518 5839,529 5810,540 5782,552 5753,565
 5725,579 5698,593 5671,608 5645,623 5620,638 5596,653 5573,669 5550,684 5529,699
 5509,714 5490,729 5473,743 5456,757 5440,770 5425,783 5411,796 5392,812 5375,828
 5358,844 5342,861 5327,877 5312,893 5297,909 5284,925 5271,941 5259,956 5249,971
 5239,986 5230,1000 5222,1014 5215,1027 5209,1040 5203,1053 5198,1065 5194,1078
 5190,1091 5187,1104 5184,1117 5183,1132 5182,1147 5183,1163 5184,1179 5187,1196
 5191,1214 5197,1232 5204,1250 5212,1269 5222,1288 5233,1307 5246,1326 5259,1346
 5275,1366 5287,1381 5299,1396 5313,1412 5328,1428 5344,1444 5361,1461 5380,1479
 5399,1497 5420,1515 5443,1534 5466,1553 5490,1571 5516,1590 5542,1608 5569,1627
 5597,1644 5626,1661 5655,1678 5684,1693 5714,1708 5743,1722 5774,1736 5804,1748
 5835,1760 5866,1770"
	stroke="#000000" stroke-width="8px" stroke-linejoin="bevel"/>
<!-- Line -->
<!-- METADATA &lt;id&gt;11&lt;/id&gt; -->
<polyline points=" 5747,1049 5749,1051 5755,1055 5764,1062 5778,1072 5796,1085 5818,1100 5842,1117
 5867,1134 5892,1151 5917,1167 5942,1182 5965,1196 5987,1208 6008,1219 6029,1229
 6049,1237 6069,1244 6089,1251 6110,1257 6129,1262 6149,1266 6170,1270 6192,1274
 6215,1277 6238,1280 6262,1282 6286,1284 6311,1285 6336,1286 6361,1287 6386,1286
 6411,1286 6435,1285 6458,1284 6481,1282 6503,1280 6523,1277 6543,1274 6562,1271
 6579,1268 6596,1264 6618,1258 6638,1252 6658,1245 6676,1237 6695,1228 6712,1218
 6728,1208 6743,1197 6758,1185 6771,1173 6783,1161 6794,1149 6804,1136 6814,1124
 6822,1112 6831,1099 6838,1086 6846,1073 6854,1059 6862,1044 6870,1026 6879,1008
 6889,987 6899,964 6910,941 6920,917 6929,896 6937,878 6942,865 6945,858 6947,854
"
	stroke="#000000" stroke-width="8px" stroke-linejoin="bevel"/>
<!-- Line -->
<!-- METADATA &lt;id&gt;12&lt;/id&gt; -->
<polyline points=" 5933,1160 5936,1158 5942,1155 5952,1149 5968,1141 5987,1131 6009,1119 6032,1107
 6056,1095 6079,1083 6101,1073 6122,1063 6141,1055 6160,1048 6178,1041 6195,1036
 6212,1031 6230,1027 6247,1023 6266,1020 6285,1017 6305,1015 6325,1013 6347,1011
 6368,1010 6391,1009 6413,1008 6435,1008 6457,1009 6478,1009 6498,1010 6518,1012
 6536,1014 6554,1015 6571,1018 6587,1020 6606,1023 6625,1027 6644,1032 6663,1037
 6684,1044 6705,1051 6728,1060 6751,1069 6773,1078 6792,1085 6806,1091 6815,1095
 6818,1097 6819,1097"
	stroke="#000000" stroke-width="8px" stroke-linejoin="bevel"/>
<!-- Line -->
<!-- METADATA &lt;id&gt;14&lt;/id&gt; -->
<polyline points=" 354,1600 2705,1600"
	stroke="#87cfff" stroke-width="8px"/>
<!-- Line -->
<!-- METADATA &lt;id&gt;15&lt;/id&gt; -->
<polyline points=" 519,1146 2856,1153"
	stroke="#87cfff" stroke-width="8px"/>
<!-- Line -->
<!-- METADATA &lt;id&gt;17&lt;/id&gt; -->
<polyline points=" 660,724 2983,724"
	stroke="#87cfff" stroke-width="8px"/>
<!-- Line -->
<!-- METADATA &lt;id&gt;18&lt;/id&gt; -->
<polyline points=" 6029,1802 6028,1802 6025,1802 6018,1801 6007,1799 5994,1796 5980,1793 5967,1788
 5957,1784 5948,1778 5940,1771 5935,1762 5930,1752 5926,1742 5924,1731 5922,1718
 5920,1704 5919,1688 5919,1671 5919,1653 5921,1635 5923,1616 5925,1598 5928,1580
 5932,1563 5937,1546 5942,1531 5948,1515 5954,1500 5961,1484 5969,1469 5978,1453
 5987,1438 5996,1424 6006,1410 6016,1396 6026,1384 6035,1373 6044,1363 6053,1354
 6061,1346 6072,1335 6083,1326 6093,1318 6105,1310 6116,1303 6126,1298 6137,1293
 6147,1290 6156,1287 6166,1285 6175,1283 6186,1281 6197,1280 6211,1279 6227,1278
 6244,1277 6259,1277 6270,1276 6275,1276 6276,1276"
	stroke="#87cfff" stroke-width="8px" stroke-linejoin="bevel"/>
<!-- Line -->
<!-- METADATA &lt;id&gt;19&lt;/id&gt; -->
<polyline points=" 6044,1804 6045,1804 6048,1803 6057,1801 6069,1797 6085,1792 6102,1786 6119,1778
 6134,1769 6148,1759 6161,1747 6174,1733 6187,1715 6196,1702 6205,1688 6215,1672
 6225,1655 6235,1636 6245,1617 6256,1597 6266,1575 6276,1554 6286,1533 6295,1511
 6303,1491 6311,1471 6318,1453 6324,1435 6329,1419 6333,1404 6336,1391 6339,1375
 6340,1362 6340,1350 6337,1339 6333,1329 6328,1321 6320,1313 6312,1305 6303,1299
 6294,1294 6288,1290 6284,1288 6282,1287"
	stroke="#87cfff" stroke-width="8px" stroke-linejoin="bevel" stroke-dasharray="40 40"/>
<!-- Line -->
<!-- METADATA &lt;id&gt;21&lt;/id&gt; -->
<polyline points=" 6054,1098 6053,1098 6048,1100 6036,1103 6020,1107 6002,1111 5985,1114 5969,1115
 5956,1115 5944,1113 5932,1109 5922,1104 5912,1098 5902,1091 5891,1082 5880,1071
 5869,1060 5858,1047 5847,1033 5838,1018 5829,1003 5820,988 5813,972 5807,958
 5801,943 5796,927 5791,910 5785,893 5781,875 5776,856 5772,837 5768,819 5765,801
 5762,785 5760,769 5757,754 5756,740 5754,724 5752,708 5751,693 5750,678 5749,664
 5749,650 5749,638 5750,626 5751,616 5753,606 5755,598 5757,592 5761,583 5767,575
 5774,568 5784,561 5795,555 5804,550 5809,547 5810,547"
	stroke="#87cfff" stroke-width="8px" stroke-linejoin="bevel" stroke-dasharray="40 40"/>
<!-- Line -->
<!-- METADATA &lt;id&gt;26&lt;/id&gt; -->
<polyline points=" 6759,1062 6757,1061 6754,1058 6749,1054 6743,1049 6738,1043 6733,1036 6730,1028
 6728,1020 6727,1011 6728,1001 6730,989 6732,979 6735,968 6739,956 6744,943 6750,928
 6757,913 6765,897 6773,881 6783,864 6794,848 6805,832 6817,817 6830,802 6843,788
 6857,775 6872,762 6885,752 6900,742 6915,732 6932,723 6949,715 6968,706 6987,699
 7007,691 7027,685 7048,679 7068,675 7089,671 7109,668 7128,666 7147,664 7165,664
 7183,664 7200,666 7219,668 7238,671 7256,675 7275,680 7294,685 7313,691 7332,697
 7350,703 7368,709 7385,714 7402,719 7417,723 7432,727 7445,729 7458,730 7470,731
 7486,729 7501,725 7516,719 7530,711 7545,702 7558,692 7571,682 7583,671 7594,660
 7604,651 7613,642 7622,635 7631,628 7640,622 7649,617 7658,614 7666,612 7674,611
 7681,611 7688,612 7693,613 7699,615 7707,617 7716,620 7727,624 7737,628 7745,630
 7746,631"
	stroke="#87cfff" stroke-width="8px" stroke-linejoin="bevel"/>
<!-- Line -->
<!-- METADATA &lt;id&gt;27&lt;/id&gt; -->
<polyline points=" 6767,1071 6770,1072 6776,1075 6786,1078 6797,1082 6809,1086 6822,1089 6836,1091
 6851,1093 6869,1096 6880,1097 6892,1098 6905,1099 6920,1100 6935,1101 6952,1102
 6971,1102 6990,1103 7010,1104 7030,1104 7052,1104 7073,1105 7095,1105 7116,1104
 7138,1104 7159,1103 7180,1103 7202,1102 7221,1101 7241,1100 7261,1098 7282,1097
 7303,1095 7325,1093 7347,1090 7370,1088 7393,1085 7415,1081 7438,1078 7459,1074
 7481,1070 7501,1065 7521,1061 7539,1056 7557,1051 7573,1046 7589,1041 7604,1036
 7624,1027 7643,1018 7662,1008 7679,997 7696,985 7711,972 7726,959 7739,945 7750,931
 7761,917 7769,903 7777,889 7783,876 7788,862 7793,846 7797,830 7800,813 7802,795
 7803,777 7804,760 7803,743 7802,727 7800,712 7798,699 7796,688 7793,678 7788,665
 7783,655 7776,646 7768,638 7759,631 7751,626 7747,623 7746,623"
	stroke="#87cfff" stroke-width="8px" stroke-linejoin="bevel" stroke-dasharray="40 40"/>
<!-- Line -->
<!-- METADATA &lt;id&gt;20&lt;/id&gt; -->
<polyline points=" 5824,540 5827,539 5833,537 5843,534 5855,532 5868,529 5880,528 5891,528 5902,529
 5911,532 5920,536 5930,543 5938,549 5946,557 5955,567 5964,577 5974,590 5984,603
 5993,617 6003,633 6012,648 6021,664 6029,680 6036,695 6043,711 6049,726 6055,741
 6060,756 6065,772 6069,789 6073,806 6076,823 6079,840 6081,856 6083,873 6085,888
 6086,903 6086,916 6086,929 6086,941 6085,955 6084,968 6082,981 6079,995 6075,1010
 6071,1027 6066,1043 6062,1059 6058,1072 6055,1080 6054,1083 6054,1084"
	stroke="#87cfff" stroke-width="8px" stroke-linejoin="bevel"/>
</g>
</svg>
